<svg xmlns="http://www.w3.org/2000/svg" width="34.092" height="38.963" viewBox="0 0 34.092 38.963">
  <path id="Icon_awesome-discord" data-name="Icon awesome-discord" d="M22.618,18.507a1.994,1.994,0,1,1-1.987-2.162A2.076,2.076,0,0,1,22.618,18.507Zm-9.1-2.162a2.17,2.17,0,0,0,0,4.325,2.076,2.076,0,0,0,1.987-2.162A2.063,2.063,0,0,0,13.52,16.345ZM34.093,4.013v34.95c-4.908-4.337-3.338-2.9-9.039-8.2l1.033,3.6H3.994A4,4,0,0,1,0,30.352V4.013A4,4,0,0,1,3.994,0H30.1A4,4,0,0,1,34.093,4.013ZM28.54,22.482a26.089,26.089,0,0,0-2.805-11.358,9.634,9.634,0,0,0-5.474-2.046l-.273.312a12.965,12.965,0,0,1,4.851,2.474A16.553,16.553,0,0,0,10.286,11.3c-.721.331-1.149.565-1.149.565A13.143,13.143,0,0,1,14.26,9.312l-.195-.234a9.634,9.634,0,0,0-5.474,2.046A26.089,26.089,0,0,0,5.786,22.482a7.063,7.063,0,0,0,5.942,2.961s.721-.877,1.305-1.617a6.059,6.059,0,0,1-3.409-2.3c.287.2.759.461.8.487a14.2,14.2,0,0,0,12.156.682,11.148,11.148,0,0,0,2.24-1.149,6.147,6.147,0,0,1-3.526,2.318c.584.74,1.286,1.578,1.286,1.578A7.121,7.121,0,0,0,28.54,22.482Z" fill="#fff"/>
</svg>
