<svg xmlns="http://www.w3.org/2000/svg" width="38.972" height="38.963" viewBox="0 0 38.972 38.963">
  <path id="Icon_awesome-instagram" data-name="Icon awesome-instagram" d="M19.485,11.73a9.99,9.99,0,1,0,9.99,9.99A9.974,9.974,0,0,0,19.485,11.73Zm0,16.484a6.495,6.495,0,1,1,6.495-6.495,6.506,6.506,0,0,1-6.495,6.495ZM32.213,11.321a2.33,2.33,0,1,1-2.33-2.33A2.325,2.325,0,0,1,32.213,11.321Zm6.616,2.365c-.148-3.121-.861-5.886-3.147-8.164s-5.043-2.991-8.164-3.147c-3.217-.183-12.859-.183-16.075,0-3.113.148-5.877.861-8.164,3.139S.288,10.556.132,13.677c-.183,3.217-.183,12.859,0,16.076.148,3.121.861,5.886,3.147,8.164s5.043,2.991,8.164,3.147c3.217.183,12.859.183,16.075,0,3.121-.148,5.886-.861,8.164-3.147s2.991-5.043,3.147-8.164c.183-3.217.183-12.85,0-16.067ZM34.674,33.2a6.575,6.575,0,0,1-3.7,3.7c-2.565,1.017-8.651.782-11.485.782S10.556,37.916,8,36.908a6.575,6.575,0,0,1-3.7-3.7c-1.017-2.565-.782-8.651-.782-11.485S3.288,12.79,4.3,10.234A6.575,6.575,0,0,1,8,6.53c2.565-1.017,8.651-.782,11.485-.782s8.929-.226,11.485.782a6.575,6.575,0,0,1,3.7,3.7c1.017,2.565.782,8.651.782,11.485S35.691,30.648,34.674,33.2Z" transform="translate(0.005 -2.238)" fill="#fff"/>
</svg>
