<svg xmlns="http://www.w3.org/2000/svg" width="38.963" height="38.963" viewBox="0 0 38.963 38.963">
  <path id="Icon_awesome-linkedin" data-name="Icon awesome-linkedin" d="M36.18,2.25H2.774A2.8,2.8,0,0,0,0,5.059V38.4a2.8,2.8,0,0,0,2.774,2.809H36.18A2.8,2.8,0,0,0,38.963,38.4V5.059A2.8,2.8,0,0,0,36.18,2.25Zm-24.4,33.4H6V17.052h5.784V35.647ZM8.888,14.513a3.348,3.348,0,1,1,3.348-3.348A3.35,3.35,0,0,1,8.888,14.513ZM33.423,35.647H27.648V26.6c0-2.157-.043-4.931-3-4.931-3.009,0-3.47,2.348-3.47,4.775v9.2H15.4V17.052h5.54v2.54h.078a6.083,6.083,0,0,1,5.47-3c5.844,0,6.932,3.853,6.932,8.862Z" transform="translate(0 -2.25)" fill="#fff"/>
</svg>
