<svg xmlns="http://www.w3.org/2000/svg" width="469.5" height="365.448" viewBox="0 0 469.5 365.448">
  <g id="photo_2023-11-02_19-03-06-removebg-preview" transform="translate(-1.25 -1.2)">
    <path id="Path_3510" data-name="Path 3510" d="M300.852,353.8,284.4,245.105a1.248,1.248,0,0,0-1.237-1.067l-43.365-.062a1.248,1.248,0,0,0-1.237,1.052l-17.275,108.83a1.252,1.252,0,0,0,1.253,1.454l14.63-.155a1.236,1.236,0,0,1,1.268,1.268l-.093,7.485a1.264,1.264,0,0,1-1.253,1.237l-32.895.031a1.261,1.261,0,0,1-1.253-1.268l.124-7.624a1.236,1.236,0,0,1,1.3-1.237l8.429.294a1.242,1.242,0,0,0,1.284-1.036L272.318,2.252A1.249,1.249,0,0,1,273.555,1.2l16.842.093a1.244,1.244,0,0,1,1.222,1.052L349.2,354.075a1.259,1.259,0,0,0,1.222,1.052l8.723.077a1.251,1.251,0,0,1,1.237,1.237l.139,7.516a1.245,1.245,0,0,1-1.253,1.284l-73.4-.062a1.247,1.247,0,0,1-1.253-1.253l.046-7.454a1.248,1.248,0,0,1,1.253-1.253l13.7.015A1.258,1.258,0,0,0,300.852,353.8ZM281.659,232.609a.624.624,0,0,0,.619-.727L262.992,101.54a.631.631,0,0,0-.619-.541.622.622,0,0,0-.634.526l-20.8,130.4a.637.637,0,0,0,.619.742Z" transform="translate(110.232 0)" fill="#cdd27e"/>
    <path id="Path_3511" data-name="Path 3511" d="M104.417,21.214c1.562-8.63-4.5-7.392-6.959-12.7a2,2,0,0,1,1.7-2.846L150.195,2.81a.878.878,0,0,1,.928.588c.974,2.335.742,4.006-.7,4.98-30.39,20.878-61.088,61.46-42.329,101.067,8.614,18.156,30.714,15.651,38.416-1.748,7.81-17.692,11.011-35.88,15.342-54.33C167.825,28.05,179.7,4.109,209.736,3.615c28.224-.464,44,25.781,48.113,50.325,4.114,24.683-.835,47.866-5.243,72.1a12.8,12.8,0,0,0,.387,3.959,3.825,3.825,0,0,0,.65,1.5l3.7,5.088a1.509,1.509,0,0,1-1.16,2.4q-20.02.626-40.226,2.041a14.649,14.649,0,0,1-1.809.031,3.038,3.038,0,0,1-1.639-5.49c28.549-20.8,49.5-45.608,39.715-82.941-2.444-9.295-9.511-17.909-19.409-18.76-18.033-1.577-24.018,27.173-26.446,40.272a335.053,335.053,0,0,1-13.3,50.077c-.727,2.088-2.784,5.629-6.171,10.656-9.65,14.275-24.25,20.755-41.788,18.543-38.014-4.794-49.2-48.438-47.108-79.956A471.41,471.41,0,0,1,104.417,21.214Z" transform="translate(52.477 0.88)" fill="#cdd27e"/>
    <path id="Path_3512" data-name="Path 3512" d="M16.019,16.243,3,16.228A1.549,1.549,0,0,1,1.25,14.48l.031-7.949A1.525,1.525,0,0,1,2.812,5H140.764a.763.763,0,0,1,.758.727l2.629,99.365c.031,1.222-.557,1.779-1.779,1.7l-1.516-.108a2.433,2.433,0,0,1-2.227-2q-6.774-36.4-18.7-61.46Q105.34,12.539,70.736,16.6a1.135,1.135,0,0,0-.99,1.129l-.031,156.2a.816.816,0,0,0,.711.8q20.786,2.529,29.106-16.347A149.558,149.558,0,0,0,111.859,109.1a1.454,1.454,0,0,1,1.655-1.516l1.577.015a1.35,1.35,0,0,1,1.345,1.361l-.015,148.994c0,1.33-.665,1.933-1.98,1.809l-1.021-.093a2.129,2.129,0,0,1-2.119-2.1,212.243,212.243,0,0,0-9.5-45.731c-4.671-14.151-13.362-24.482-30.08-23.786a2.111,2.111,0,0,0-2.011,2.119l.031,161.3a1.116,1.116,0,0,0,.974,1.1,48.71,48.71,0,0,0,24.575-2.8c31.689-12.666,46.675-66.223,50.34-96.056a1.313,1.313,0,0,1,1.423-1.284l3.109-.031a1.232,1.232,0,0,1,1.253,1.268L149.347,363.8a.705.705,0,0,1-.789.773H2.8a1.358,1.358,0,0,1-1.531-1.547l.015-8.692a1.459,1.459,0,0,1,1.7-1.639L15.509,353a1.541,1.541,0,0,0,1.562-1.531L17.04,17.264A1.03,1.03,0,0,0,16.019,16.243Z" transform="translate(0 2.077)" fill="#cdd27e"/>
    <path id="Path_3513" data-name="Path 3513" d="M204.778,108.091a1.38,1.38,0,0,0-1.33,1.376l.015,193.179a1.426,1.426,0,0,0,1.438,1.438l19.378-.139a1.47,1.47,0,0,1,1.485,1.407l.186,3.65a1.053,1.053,0,0,1-1.191,1.268l-93.767-.031a.926.926,0,0,1-1.052-1.083l.124-4.052a1.146,1.146,0,0,1,1.144-1.114l20.105-.016a1.172,1.172,0,0,0,1.16-1.175l-.062-192.993a1.659,1.659,0,0,0-1.84-1.871c-20.585-.371-28.828,14.553-35.478,31.8a368.209,368.209,0,0,0-11.522,35,2.243,2.243,0,0,1-1.871,1.717,3.38,3.38,0,0,1-3-.479,3.227,3.227,0,0,1-.619-2.474q1.23-35.052,2.382-70.43a1.186,1.186,0,0,1,1.33-1.284l152.01-.031a1.2,1.2,0,0,1,1.206,1.16q1.183,34.96,2.382,70.244c0,.062.031.4.108,1.036.17,1.531-.619,2.366-2.366,2.536a3.333,3.333,0,0,1-3.557-2.505,275.919,275.919,0,0,0-16.842-47.448Q225.8,107.31,204.778,108.091Z" transform="translate(52.92 54.955)" fill="#cdd27e"/>
  </g>
</svg>
