<svg xmlns="http://www.w3.org/2000/svg" width="46.629" height="46.63" viewBox="0 0 46.629 46.63">
  <path id="Icon_awesome-phone-alt" data-name="Icon awesome-phone-alt" d="M44.3,32.224l-9.975-4.275a2.138,2.138,0,0,0-2.494.615l-4.418,5.4A33.013,33.013,0,0,1,11.632,18.179l5.4-4.418a2.132,2.132,0,0,0,.615-2.494L13.369,1.292A2.152,2.152,0,0,0,10.92.054L1.657,2.192A2.138,2.138,0,0,0,0,4.275,41.322,41.322,0,0,0,41.327,45.6a2.138,2.138,0,0,0,2.084-1.657l2.138-9.263A2.163,2.163,0,0,0,44.3,32.224Z" transform="translate(0.5 0.528)" fill="#fff" stroke="#fff" stroke-width="1"/>
</svg>
