<svg xmlns="http://www.w3.org/2000/svg" width="47.973" height="38.963" viewBox="0 0 47.973 38.963">
  <path id="Icon_awesome-twitter" data-name="Icon awesome-twitter" d="M43.042,13.091c.03.426.03.852.03,1.279,0,13-9.893,27.974-27.974,27.974A27.784,27.784,0,0,1,0,37.93a20.34,20.34,0,0,0,2.374.122,19.691,19.691,0,0,0,12.206-4.2,9.849,9.849,0,0,1-9.193-6.819,12.4,12.4,0,0,0,1.857.152,10.4,10.4,0,0,0,2.587-.335A9.833,9.833,0,0,1,1.948,17.2v-.122a9.9,9.9,0,0,0,4.444,1.248A9.847,9.847,0,0,1,3.348,5.177,27.947,27.947,0,0,0,23.621,15.465a11.1,11.1,0,0,1-.244-2.252A9.841,9.841,0,0,1,40.393,6.486a19.358,19.358,0,0,0,6.24-2.374A9.805,9.805,0,0,1,42.311,9.53a19.71,19.71,0,0,0,5.662-1.522,21.135,21.135,0,0,1-4.931,5.083Z" transform="translate(0 -3.381)" fill="#fff"/>
</svg>
